HIERARCHY
ROOT Hips
{
	OFFSET 0.000000 0.000000 0.000000
	CHANNELS 6 Xposition Yposition Zposition Zrotation Yrotation Xrotation 
	JOINT LHipJoint
	{
		OFFSET 0.000000 0.000000 0.000000
		CHANNELS 3 Zrotation Yrotation Xrotation
		JOINT LeftUpLeg
		{
			OFFSET 1.363060 -1.794630 0.839290
			CHANNELS 3 Zrotation Yrotation Xrotation
			JOINT LeftLeg
			{
				OFFSET 2.448110 -6.726130 0.000000
				CHANNELS 3 Zrotation Yrotation Xrotation
				JOINT LeftFoot
				{
					OFFSET 2.562200 -7.039590 0.000000
					CHANNELS 3 Zrotation Yrotation Xrotation
					JOINT LeftToeBase
					{
						OFFSET 0.157640 -0.433110 2.322550
						CHANNELS 3 Zrotation Yrotation Xrotation
						End Site
						{
							OFFSET 0.000000 0.000000 0.000000
						}
					}
				}
			}
		}
	}
	JOINT RHipJoint
	{
		OFFSET 0.000000 0.000000 0.000000
		CHANNELS 3 Zrotation Yrotation Xrotation
		JOINT RightUpLeg
		{
			OFFSET -1.305520 -1.794630 0.839290
			CHANNELS 3 Zrotation Yrotation Xrotation
			JOINT RightLeg
			{
				OFFSET -2.542530 -6.985550 0.000000
				CHANNELS 3 Zrotation Yrotation Xrotation
				JOINT RightFoot
				{
					OFFSET -2.568260 -7.056230 0.000000
					CHANNELS 3 Zrotation Yrotation Xrotation
					JOINT RightToeBase
					{
						OFFSET -0.164730 -0.452590 2.363150
						CHANNELS 3 Zrotation Yrotation Xrotation
						End Site
						{
							OFFSET 0.000000 0.000000 0.000000
						}
					}
				}
			}
		}
	}
	JOINT LowerBack
	{
		OFFSET 0.000000 0.000000 0.000000
		CHANNELS 3 Zrotation Yrotation Xrotation
		JOINT Spine
		{
			OFFSET 0.028270 2.035590 -0.193380
			CHANNELS 3 Zrotation Yrotation Xrotation
			JOINT Spine1
			{
				OFFSET 0.056720 2.048850 -0.042750
				CHANNELS 3 Zrotation Yrotation Xrotation
				JOINT Neck
				{
					OFFSET 0.000000 0.000000 0.000000
					CHANNELS 3 Zrotation Yrotation Xrotation
					JOINT Neck1
					{
						OFFSET -0.054170 1.746240 0.172020
						CHANNELS 3 Zrotation Yrotation Xrotation
						JOINT Head
						{
							OFFSET 0.104070 1.761360 -0.123970
							CHANNELS 3 Zrotation Yrotation Xrotation
							End Site
							{
								OFFSET 0.000000 0.000000 0.000000
							}
						}
					}
				}
				JOINT LeftShoulder
				{
					OFFSET 0.000000 0.000000 0.000000
					CHANNELS 3 Zrotation Yrotation Xrotation
					JOINT LeftArm
					{
						OFFSET 3.362410 1.200890 -0.311210
						CHANNELS 3 Zrotation Yrotation Xrotation
						JOINT LeftForeArm
						{
							OFFSET 4.983000 -0.000000 -0.000000
							CHANNELS 3 Zrotation Yrotation Xrotation
							JOINT LeftHand
							{
								OFFSET 3.483560 -0.000000 -0.000000
								CHANNELS 3 Zrotation Yrotation Xrotation
								JOINT LeftFingerBase
								{
									OFFSET 0.000000 0.000000 0.000000
									CHANNELS 3 Zrotation Yrotation Xrotation
									JOINT LeftHandIndex1
									{
										OFFSET 0.715260 -0.000000 -0.000000
										CHANNELS 3 Zrotation Yrotation Xrotation
										End Site
										{
											OFFSET 0.000000 0.000000 0.000000
										}
									}
								}
								JOINT LThumb
								{
									OFFSET 0.000000 0.000000 0.000000
									CHANNELS 3 Zrotation Yrotation Xrotation
									End Site
									{
										OFFSET 0.000000 0.000000 0.000000
									}
								}
							}
						}
					}
				}
				JOINT RightShoulder
				{
					OFFSET 0.000000 0.000000 0.000000
					CHANNELS 3 Zrotation Yrotation Xrotation
					JOINT RightArm
					{
						OFFSET -3.136600 1.374050 -0.404650
						CHANNELS 3 Zrotation Yrotation Xrotation
						JOINT RightForeArm
						{
							OFFSET -5.241900 -0.000000 -0.000000
							CHANNELS 3 Zrotation Yrotation Xrotation
							JOINT RightHand
							{
								OFFSET -3.444170 -0.000000 -0.000000
								CHANNELS 3 Zrotation Yrotation Xrotation
								JOINT RightFingerBase
								{
									OFFSET 0.000000 0.000000 0.000000
									CHANNELS 3 Zrotation Yrotation Xrotation
									JOINT RightHandIndex1
									{
										OFFSET -0.622530 -0.000000 -0.000000
										CHANNELS 3 Zrotation Yrotation Xrotation
										End Site
										{
											OFFSET 0.000000 0.000000 0.000000
										}
									}
								}
								JOINT RThumb
								{
									OFFSET 0.000000 0.000000 0.000000
									CHANNELS 3 Zrotation Yrotation Xrotation
									End Site
									{
										OFFSET 0.000000 0.000000 0.000000
									}
								}
							}
						}
					}
				}
			}
		}
	}
}
MOTION
Frames: 8
Frame Time: 0.008333
8.111876 10.238100 10.613871 5.236285 -2.329883 -0.959009 0.117880 -2.864224 -5.369246 -1.669168 34.777322 -84.094768 8.576231 12.733957 46.619114 36.613396 -0.570067 -152.277843 6.066100 14.492100 45.246300 1.540932 1.907931 -2.177434 -22.626067 -28.781489 -68.764334 -7.329872 -13.195748 47.881110 -39.979283 4.669803 170.270515 -0.048500 -1.421300 3.908900 -1.153502 -1.355691 31.215247 1.413335 -2.031003 0.454191 -1.834260 -0.732447 -2.166021 -1.183998 10.094763 0.814450 -3.590157 13.242829 -15.257406 -2.297200 6.634600 -6.461200 -0.245705 -8.338077 2.854808 -66.452742 -25.525914 18.957052 75.393093 -54.866522 -46.716159 0.474385 -0.080675 -54.131423 31.214676 -14.980078 -8.561600 -7.125000 0.000000 0.000000 2.346600 13.190400 -1.750700 -0.978705 8.908971 4.686353 46.634662 5.192454 56.015663 -152.585394 30.789956 -112.173426 -1.601805 -0.255188 -41.431813 4.404012 -33.420947 -3.252500 7.125000 0.000000 0.000000 43.122300 -58.697800 -16.338500 
8.118221 10.362234 10.665031 5.424208 -1.940735 -0.440931 -0.011257 -2.895616 -5.254064 -1.440258 34.333370 -83.614310 8.828918 12.950112 48.001227 37.328081 1.218275 -154.729550 5.677000 14.107900 43.671400 1.587472 1.934822 -2.152429 -22.673379 -28.174752 -68.994300 -7.873577 -13.631848 49.887659 -39.883405 3.490291 169.997653 -0.020800 -0.931500 2.560400 -1.423594 -1.543797 30.808693 1.385461 -2.340634 0.161160 -1.633115 -0.901184 -2.409985 -0.732568 10.183310 0.398550 -3.794405 13.411846 -14.508149 -2.385500 6.714400 -6.109100 -0.290565 -8.205954 2.851286 -64.067523 -22.555218 17.742475 82.925637 -55.575754 -53.915821 0.555025 -0.213641 -56.609032 32.464855 -15.358280 -9.121600 -7.125000 0.000000 0.000000 3.217200 12.761600 -2.431000 -0.969746 8.854268 4.874124 44.611795 4.455472 61.783254 -154.861410 28.417676 -113.294779 -1.628665 -0.310764 -41.684178 4.723041 -32.571488 -3.385700 7.125000 0.000000 0.000000 42.553800 -57.957800 -15.284100 
8.125558 10.478236 10.715398 5.510159 -1.586001 0.146903 -0.142885 -2.928412 -5.141296 -1.107883 33.831710 -83.198401 9.097264 13.173212 49.442014 38.095544 3.145326 -157.487314 5.201000 13.606600 41.684000 1.633112 1.958963 -2.123352 -22.546325 -27.590418 -69.343606 -8.474761 -14.085879 52.071167 -39.778946 2.218034 169.525636 -0.000800 -0.184200 0.506200 -1.630541 -1.652783 30.324363 1.374372 -2.524290 -0.120428 -1.454182 -1.001710 -2.627733 -0.316472 10.181227 -0.007252 -3.872602 13.466507 -13.845696 -2.424900 6.731400 -5.800200 -0.343913 -8.093739 2.863276 -61.793058 -19.679069 17.008231 90.272766 -55.959034 -60.976954 0.651224 -0.340024 -58.921869 33.288047 -15.675460 -9.508900 -7.125000 0.000000 0.000000 3.805000 12.471800 -2.900000 -0.938762 8.821622 4.996836 43.062960 3.429369 64.356500 -156.008401 27.191493 -113.828308 -1.637463 -0.371613 -43.388413 4.609227 -32.179020 -3.300800 7.125000 0.000000 0.000000 42.078900 -57.684800 -14.781700 
8.134184 10.586407 10.765170 5.483931 -1.228083 0.783117 -0.274313 -2.961298 -5.037455 -0.665844 33.251495 -82.820900 9.395524 13.410764 50.939667 38.837340 5.032019 -160.365633 4.643700 12.970900 39.259700 1.677344 1.978052 -2.090680 -22.259770 -27.069318 -69.742580 -9.124019 -14.543776 54.392090 -39.665720 0.913143 168.830032 -0.013000 0.735400 -2.021100 -1.749033 -1.691903 29.802372 1.373245 -2.591985 -0.391606 -1.326139 -1.037539 -2.851043 0.063181 10.076391 -0.372347 -3.794378 13.390046 -13.307421 -2.410000 6.675100 -5.552500 -0.404432 -8.013478 2.882567 -59.555285 -16.975621 16.843053 97.536958 -56.039243 -67.850341 0.749037 -0.442561 -61.240082 33.605567 -15.864436 -9.653700 -7.125000 0.000000 0.000000 4.063600 12.392500 -3.104900 -0.892431 8.820677 5.038001 42.207334 1.918989 63.316951 -156.133280 27.057541 -113.893574 -1.629275 -0.439125 -46.012986 4.481880 -32.197443 -3.235000 7.125000 0.000000 0.000000 41.996300 -57.736600 -14.799900 
8.144793 10.686645 10.815141 5.370939 -0.833362 1.442022 -0.404477 -2.994186 -4.944556 -0.144312 32.579435 -82.444859 9.732334 13.667141 52.499757 39.503177 6.776413 -163.244530 4.057700 12.236800 36.574800 1.721533 1.992355 -2.056837 -21.881015 -26.658504 -70.111969 -9.810050 -14.989107 56.803102 -39.540502 -0.410583 167.924596 -0.065100 1.646200 -4.528700 -1.780988 -1.667486 29.263514 1.371379 -2.556630 -0.650102 -1.267059 -1.014992 -3.084902 0.366443 9.869843 -0.668815 -3.528080 13.179214 -12.934906 -2.330100 6.543500 -5.387900 -0.472531 -7.972270 2.906887 -57.298029 -14.560900 17.362074 104.758039 -55.733823 -74.473640 0.836573 -0.513358 -63.608524 33.316297 -15.977689 -9.557200 -7.125000 0.000000 0.000000 3.916600 12.462000 -2.986300 -0.834426 8.849525 4.997541 42.113878 -0.158509 59.305232 -155.277377 27.971820 -113.534199 -1.599302 -0.479373 -48.115731 4.354061 -32.214181 -3.154300 7.125000 0.000000 0.000000 41.881900 -57.787600 -14.803000 
8.157980 10.778853 10.865706 5.200722 -0.394475 2.116391 -0.532042 -3.027110 -4.861203 0.409487 31.817496 -82.060217 10.112886 13.942921 54.135606 40.077944 8.389916 -166.038435 3.495700 11.457300 33.838000 1.766329 2.003681 -2.024519 -21.436439 -26.383289 -70.443583 -10.518375 -15.408689 59.251819 -39.403516 -1.699145 166.852580 -0.155000 2.536800 -6.991600 -1.746471 -1.575747 28.708190 1.363490 -2.419045 -0.891185 -1.273892 -0.936375 -3.312661 0.559260 9.566977 -0.901342 -3.090151 12.837195 -12.755306 -2.185700 6.340800 -5.314000 -0.549450 -7.969567 2.939817 -54.991447 -12.589525 18.724831 111.885777 -54.921735 -80.771201 0.910110 -0.556897 -65.829098 32.520431 -16.202692 -9.371900 -7.125000 0.000000 0.000000 3.404100 12.442600 -2.595400 -0.765969 8.900951 4.884826 42.716767 -2.702181 53.442510 -153.489860 29.843456 -112.736603 -1.552102 -0.462439 -48.196399 4.357871 -31.941559 -3.107200 7.125000 0.000000 0.000000 41.553100 -57.573500 -14.434200 
8.174042 10.862533 10.917065 4.976893 0.078042 2.798699 -0.655565 -3.059097 -4.784702 0.979336 30.983276 -81.655175 10.538692 14.234064 55.851293 40.558620 9.900144 -168.649720 2.997500 10.691100 31.244900 1.810170 2.012960 -1.995056 -20.922212 -26.234715 -70.739345 -11.234954 -15.795115 61.693392 -39.256698 -2.877085 165.656079 -0.283900 3.426500 -9.468500 -1.663514 -1.419541 28.148583 1.362138 -2.184194 -1.123557 -1.305786 -0.806627 -3.544014 0.574413 9.195173 -1.057440 -2.501963 12.394630 -12.756521 -1.972600 6.087400 -5.330400 -0.636885 -8.001931 2.984422 -52.674240 -11.149280 21.017945 118.835526 -53.512640 -86.690312 0.975368 -0.586332 -67.634628 31.374161 -16.631479 -9.191800 -7.125000 0.000000 0.000000 2.622900 12.221100 -2.010400 -0.688732 8.962623 4.717573 43.865643 -5.483726 46.824696 -150.877777 32.471780 -111.466545 -1.491812 -0.410655 -45.860186 5.095179 -31.258757 -3.413200 7.125000 0.000000 0.000000 41.453800 -56.847200 -13.628900 
8.192880 10.937390 10.969216 4.726521 0.590684 3.480639 -0.773034 -3.091071 -4.714697 1.527137 30.074682 -81.211324 11.004888 14.534068 57.631814 40.946517 11.316146 -170.924070 2.609200 10.033800 29.086100 1.853396 2.022032 -1.970655 -20.373644 -26.225644 -70.988866 -11.935705 -16.136838 64.050187 -39.100106 -3.902918 164.364164 -0.434200 4.228600 -11.720600 -1.545992 -1.201920 27.558857 1.368511 -1.857951 -1.339345 -1.348684 -0.630881 -3.739651 0.346967 8.773343 -1.125495 -1.768707 11.875393 -12.921644 -1.679600 5.799200 -5.436100 -0.737271 -8.066062 3.041390 -50.375123 -10.324082 24.292954 125.500478 -51.466879 -92.162713 1.044663 -0.613702 -68.711380 30.109677 -17.431472 -9.159400 -7.125000 0.000000 0.000000 1.713200 11.602300 -1.334200 -0.607071 9.022477 4.516297 45.460628 -8.256493 40.001004 -147.598361 35.566338 -109.693576 -1.435970 -0.333001 -42.109879 6.062319 -30.682205 -3.835600 7.125000 0.000000 0.000000 41.674800 -56.152000 -12.979300 
